<?xml version="1.0" encoding="utf-8"?>
<!-- Generator: Adobe Illustrator 21.0.0, SVG Export Plug-In . SVG Version: 6.00 Build 0)  -->
<svg version="1.1" id="图层_1" xmlns="http://www.w3.org/2000/svg" xmlns:xlink="http://www.w3.org/1999/xlink" x="0px" y="0px"
	 viewBox="0 0 1024 1024" style="enable-background:new 0 0 1024 1024;" xml:space="preserve">
<style type="text/css">
	.st0{fill:none;}
	.st1{fill:#76838f;}
</style>
<path class="st0" d="M1304.8,1953v0.8h405.9c-0.3-0.3-0.6-0.5-0.9-0.8H1304.8z"/>
<g>
	<path class="st1" d="M496.5,747.5l-2.3-5.8l2.3-5.8c17.6-45.6,48.4-84.5,88.9-112.6c26.8-18.6,56.7-31.5,88.1-38.2
		c-40-17.5-76.4-29.5-93-34.8c-2.2-1.3-4.8-9.3-0.1-25.9c50.3-53.1,81.3-129.2,81.3-200.4c0-113.1-80.6-192.7-191.3-192.7
		c-110.4,0-187.6,79-187.6,192.1c0,72.1,31.3,148.8,82.1,201.6c5.1,16.6-1.5,22.6-5.7,24.4c-49.6,17.4-234.3,80.7-239.2,168.5v120.6
		h438.3C531,813.1,510,782.2,496.5,747.5z"/>
</g>
<g>
	<path class="st1" d="M733.2,685c-33.7,0-59.4,25.7-59.4,59.4c0,33.7,25.7,59.4,59.4,59.4c33.7,0,59.4-25.7,59.4-59.4
		C792.6,710.7,766.9,685,733.2,685L733.2,685z M733.2,843.3c-55.4,0-99-43.6-99-99c0-55.4,43.6-99,99-99c55.4,0,99,43.6,99,99
		C832.2,799.8,788.7,843.3,733.2,843.3L733.2,843.3z M733.2,595.9c-99,0-184.1,61.4-217.8,148.5c33.7,87.1,118.8,148.5,217.8,148.5
		c99,0,184.1-61.4,217.8-148.5C917.3,657.2,832.2,595.9,733.2,595.9L733.2,595.9z M733.2,595.9"/>
</g>
</svg>
