<?xml version="1.0" encoding="utf-8"?>
<!-- Generator: Adobe Illustrator 21.0.0, SVG Export Plug-In . SVG Version: 6.00 Build 0)  -->
<svg version="1.1" id="图层_1" xmlns="http://www.w3.org/2000/svg" xmlns:xlink="http://www.w3.org/1999/xlink" x="0px" y="0px"
	 viewBox="0 0 1024 1024" style="enable-background:new 0 0 1024 1024;" xml:space="preserve">
<style type="text/css">
	.st0{fill:none;}
	.st1{fill:#76838f;}
</style>
<path class="st0" d="M1304.8,1953v0.8h405.9c-0.3-0.3-0.6-0.5-0.9-0.8H1304.8z"/>
<g>
	<path class="st1" d="M496.5,747.5l-2.3-5.8l2.3-5.8c17.6-45.6,48.4-84.5,88.9-112.6c26.8-18.6,56.7-31.5,88.1-38.2
		c-40-17.5-76.4-29.5-93-34.8c-2.2-1.3-4.8-9.3-0.1-25.9c50.3-53.1,81.3-129.2,81.3-200.4c0-113.1-80.6-192.7-191.3-192.7
		c-110.4,0-187.6,79-187.6,192.1c0,72.1,31.3,148.8,82.1,201.6c5.1,16.6-1.5,22.6-5.7,24.4c-49.6,17.4-234.3,80.7-239.2,168.5v120.6
		h438.3C531,813.1,510,782.2,496.5,747.5z"/>
	<path class="st1" d="M861.6,639.8l69.1-69.1l-23-23l-74.5,74.5c-32.1-16.9-68.7-26.5-107.5-26.5c-97.3,0-181.1,60.4-214.2,146
		c17.8,46,50.2,84.7,91.5,110.7l-60.3,60.3l23,23l67.3-67.3c28.4,12.5,59.8,19.4,92.7,19.4c97.3,0,181.1-60.4,214.2-146
		C924.1,700.6,896.7,665.3,861.6,639.8z M628.5,741.6c0-54.5,42.8-97.3,97.3-97.3c24.1,0,46,8.4,62.9,22.5l-16.1,16.1
		c-13-10.3-29.3-15.9-46.7-15.9c-20.3,0-39.2,7.7-53.1,21.5c-13.9,13.9-21.5,32.7-21.5,53.1c0,17.4,5.6,33.7,15.9,46.7L651,804.5
		C636.9,787.6,628.5,765.8,628.5,741.6z M725.8,838.9c-18.4,0-35.4-4.9-50-13.4l16.8-16.8c10.1,4.9,21.4,7.5,33.2,7.5
		c20.3,0,39.2-7.7,53.1-21.5c13.9-13.9,21.5-32.7,21.5-53.1c0-11.8-2.6-23.1-7.5-33.2l16.8-16.8c8.6,14.5,13.4,31.6,13.4,50
		C823.2,796.1,780.4,838.9,725.8,838.9z"/>
</g>
</svg>
